<svg width="209" height="60" viewBox="0 0 209 60" fill="none" xmlns="http://www.w3.org/2000/svg">
<path d="M23.976 36H18.936L7.524 18.756V36H2.484V10.836H7.524L18.936 28.116V10.836H23.976V36ZM51.0967 25.596C51.0967 26.316 51.0487 26.964 50.9527 27.54H36.3727C36.4927 28.98 36.9967 30.108 37.8847 30.924C38.7727 31.74 39.8647 32.148 41.1607 32.148C43.0327 32.148 44.3647 31.344 45.1567 29.736H50.5927C50.0167 31.656 48.9127 33.24 47.2807 34.488C45.6487 35.712 43.6447 36.324 41.2687 36.324C39.3487 36.324 37.6207 35.904 36.0847 35.064C34.5727 34.2 33.3847 32.988 32.5207 31.428C31.6807 29.868 31.2607 28.068 31.2607 26.028C31.2607 23.964 31.6807 22.152 32.5207 20.592C33.3607 19.032 34.5367 17.832 36.0487 16.992C37.5607 16.152 39.3007 15.732 41.2687 15.732C43.1647 15.732 44.8567 16.14 46.3447 16.956C47.8567 17.772 49.0207 18.936 49.8367 20.448C50.6767 21.936 51.0967 23.652 51.0967 25.596ZM45.8767 24.156C45.8527 22.86 45.3847 21.828 44.4727 21.06C43.5607 20.268 42.4447 19.872 41.1247 19.872C39.8767 19.872 38.8207 20.256 37.9567 21.024C37.1167 21.768 36.6007 22.812 36.4087 24.156H45.8767ZM69.3914 36L65.2874 29.808L61.6514 36H56.2514L62.7674 25.992L56.1794 16.056H61.8674L65.9354 22.212L69.6074 16.056H75.0074L68.4554 25.992L75.0794 36H69.3914ZM80.1208 25.956C80.1208 23.94 80.5168 22.152 81.3088 20.592C82.1248 19.032 83.2168 17.832 84.5848 16.992C85.9768 16.152 87.5248 15.732 89.2288 15.732C90.7168 15.732 92.0128 16.032 93.1168 16.632C94.2448 17.232 95.1448 17.988 95.8168 18.9V16.056H100.893V36H95.8168V33.084C95.1688 34.02 94.2688 34.8 93.1168 35.424C91.9888 36.024 90.6808 36.324 89.1928 36.324C87.5128 36.324 85.9768 35.892 84.5848 35.028C83.2168 34.164 82.1248 32.952 81.3088 31.392C80.5168 29.808 80.1208 27.996 80.1208 25.956ZM95.8168 26.028C95.8168 24.804 95.5768 23.76 95.0968 22.896C94.6168 22.008 93.9688 21.336 93.1528 20.88C92.3368 20.4 91.4608 20.16 90.5248 20.16C89.5888 20.16 88.7248 20.388 87.9328 20.844C87.1408 21.3 86.4928 21.972 85.9888 22.86C85.5088 23.724 85.2688 24.756 85.2688 25.956C85.2688 27.156 85.5088 28.212 85.9888 29.124C86.4928 30.012 87.1408 30.696 87.9328 31.176C88.7488 31.656 89.6128 31.896 90.5248 31.896C91.4608 31.896 92.3368 31.668 93.1528 31.212C93.9688 30.732 94.6168 30.06 95.0968 29.196C95.5768 28.308 95.8168 27.252 95.8168 26.028ZM126.515 10.872V14.94H119.819V36H114.779V14.94H108.083V10.872H126.515ZM152.621 16.056V36H147.545V33.48C146.897 34.344 146.045 35.028 144.989 35.532C143.957 36.012 142.829 36.252 141.605 36.252C140.045 36.252 138.665 35.928 137.465 35.28C136.265 34.608 135.317 33.636 134.621 32.364C133.949 31.068 133.613 29.532 133.613 27.756V16.056H138.653V27.036C138.653 28.62 139.049 29.844 139.841 30.708C140.633 31.548 141.713 31.968 143.081 31.968C144.473 31.968 145.565 31.548 146.357 30.708C147.149 29.844 147.545 28.62 147.545 27.036V16.056H152.621ZM172.245 15.768C174.621 15.768 176.541 16.524 178.005 18.036C179.469 19.524 180.201 21.612 180.201 24.3V36H175.161V24.984C175.161 23.4 174.765 22.188 173.973 21.348C173.181 20.484 172.101 20.052 170.733 20.052C169.341 20.052 168.237 20.484 167.421 21.348C166.629 22.188 166.233 23.4 166.233 24.984V36H161.193V16.056H166.233V18.54C166.905 17.676 167.757 17.004 168.789 16.524C169.845 16.02 170.997 15.768 172.245 15.768ZM207.134 25.596C207.134 26.316 207.086 26.964 206.99 27.54H192.41C192.53 28.98 193.034 30.108 193.922 30.924C194.81 31.74 195.902 32.148 197.198 32.148C199.07 32.148 200.402 31.344 201.194 29.736H206.63C206.054 31.656 204.95 33.24 203.318 34.488C201.686 35.712 199.682 36.324 197.306 36.324C195.386 36.324 193.658 35.904 192.122 35.064C190.61 34.2 189.422 32.988 188.558 31.428C187.718 29.868 187.298 28.068 187.298 26.028C187.298 23.964 187.718 22.152 188.558 20.592C189.398 19.032 190.574 17.832 192.086 16.992C193.598 16.152 195.338 15.732 197.306 15.732C199.202 15.732 200.894 16.14 202.382 16.956C203.894 17.772 205.058 18.936 205.874 20.448C206.714 21.936 207.134 23.652 207.134 25.596ZM201.914 24.156C201.89 22.86 201.422 21.828 200.51 21.06C199.598 20.268 198.482 19.872 197.162 19.872C195.914 19.872 194.858 20.256 193.994 21.024C193.154 21.768 192.638 22.812 192.446 24.156H201.914Z" fill="#264ECA"/>
<path d="M10.5 55.5L103.5 47L192.5 55.5" stroke="#264ECA" stroke-width="8"/>
</svg>
